<svg fill="#fff" height="124" viewBox="0 0 357.25 124" width="357.25" xmlns="http://www.w3.org/2000/svg"><path d="m42.493 26.625c-19.456 0-35.375 15.919-35.375 35.375s15.919 35.375 35.375 35.375 35.375-15.919 35.375-35.375-15.919-35.375-35.375-35.375zm3.537 7.322c12.769 1.592 22.925 11.779 24.514 24.516h-24.514zm-31.837 28.053c0-14.361 10.858-26.318 24.763-28.053v56.139c-13.904-1.77-24.763-13.723-24.763-28.086zm31.837 28.051v-24.514h24.514c-1.589 12.77-11.745 22.925-24.514 24.514z"/><path d="m114.24 24.666h8.888v30.502h.202c1.414-2.525 3.636-4.747 6.363-6.262 2.626-1.516 5.757-2.525 9.09-2.525 6.564 0 17.068 4.04 17.068 20.906v29.088h-8.888v-28.077c0-7.878-2.929-14.544-11.312-14.544-5.757 0-10.302 4.04-11.917 8.888-.505 1.212-.606 2.525-.606 4.242v29.491h-8.888z"/><path d="m172.215 47.492 10.705 28.885c1.111 3.232 2.323 7.07 3.131 9.999h.203c.908-2.929 1.918-6.666 3.131-10.2l9.695-28.684h9.393l-13.332 34.844c-6.362 16.766-10.705 25.351-16.765 30.603-4.343 3.838-8.686 5.354-10.908 5.757l-2.222-7.474c2.222-.707 5.151-2.121 7.777-4.343 2.424-1.919 5.454-5.353 7.474-9.897.404-.909.707-1.616.707-2.121s-.201-1.212-.605-2.323l-18.079-45.045h9.695z"/><path d="m257.761 24.666v59.084c0 4.343.101 9.292.404 12.625h-7.979l-.403-8.483h-.202c-2.727 5.453-8.686 9.595-16.664 9.595-11.817 0-20.907-9.999-20.907-24.846-.101-16.261 9.999-26.26 21.917-26.26 7.474 0 12.523 3.535 14.745 7.474h.202v-29.189zm-8.888 42.723c0-1.111-.102-2.626-.404-3.737-1.312-5.655-6.16-10.302-12.826-10.302-9.191 0-14.645 8.08-14.645 18.887 0 9.898 4.848 18.079 14.442 18.079 5.959 0 11.413-3.939 13.028-10.605.303-1.212.404-2.424.404-3.838v-8.484z"/><path d="m272.508 62.743c0-5.758-.102-10.706-.404-15.251h7.776l.304 9.595h.403c2.222-6.565 7.575-10.706 13.534-10.706 1.01 0 1.717.102 2.524.303v8.383c-.909-.201-1.817-.303-3.03-.303-6.262 0-10.705 4.747-11.918 11.413-.201 1.212-.403 2.626-.403 4.141v26.058h-8.786z"/><path d="m332.098 96.375-.707-6.161h-.304c-2.727 3.838-7.979 7.272-14.948 7.272-9.896 0-14.947-6.969-14.947-14.039 0-11.816 10.504-18.28 29.391-18.18v-1.01c0-4.04-1.111-11.312-11.109-11.312-4.545 0-9.292 1.413-12.727 3.636l-2.02-5.858c4.04-2.626 9.898-4.343 16.059-4.343 14.947 0 18.584 10.201 18.584 19.998v18.28c0 4.242.201 8.383.808 11.716h-8.08zm-1.314-24.946c-9.696-.202-20.704 1.515-20.704 11.009 0 5.757 3.838 8.483 8.383 8.483 6.362 0 10.402-4.04 11.816-8.181.303-.909.505-1.919.505-2.828z"/></svg>